<?xml version="1.0" standalone="no"?>
<!DOCTYPE svg PUBLIC "-//W3C//DTD SVG 20010904//EN"
 "http://www.w3.org/TR/2001/REC-SVG-20010904/DTD/svg10.dtd">
<svg version="1.0" xmlns="http://www.w3.org/2000/svg"
 width="779.000000pt" height="1024.000000pt" viewBox="0 0 779.000000 1024.000000"
 preserveAspectRatio="xMidYMid meet">

<g transform="translate(0.000000,1024.000000) scale(0.100000,-0.100000)"
fill="#000000" stroke="none">
<path d="M1717 9983 c-27 -8 -46 -17 -43 -20 9 -10 113 8 132 22 18 13 17 14
-11 14 -16 -1 -52 -8 -78 -16z"/>
<path d="M2142 9903 c-12 -2 -20 -9 -17 -14 8 -12 66 -11 85 1 13 8 13 10 -2
10 -9 0 -22 2 -30 4 -7 2 -23 1 -36 -1z"/>
<path d="M1755 9885 c-27 -8 -53 -14 -57 -15 -5 0 -8 -5 -8 -11 0 -12 175 -8
187 5 12 11 -20 36 -46 35 -14 0 -48 -7 -76 -14z"/>
<path d="M2172 9792 c-11 -7 -8 -11 10 -15 37 -10 228 -8 228 2 0 6 -8 10 -17
10 -10 1 -61 3 -113 6 -52 3 -101 2 -108 -3z"/>
<path d="M2480 9780 c0 -5 7 -10 15 -10 8 0 15 -4 15 -10 0 -5 8 -10 18 -10
14 1 13 4 -7 20 -25 22 -41 26 -41 10z"/>
<path d="M1353 9719 c-43 -23 -90 -48 -105 -56 -16 -8 -28 -18 -28 -22 0 -9
-86 -52 -151 -75 -49 -18 -62 -28 -109 -90 -17 -21 -30 -34 -30 -27 0 6 -5 11
-12 11 -6 0 -3 -9 7 -20 10 -11 22 -20 28 -20 5 0 44 -21 86 -46 57 -34 85
-57 106 -92 42 -66 42 -66 4 -59 l-34 7 30 -25 c16 -13 27 -27 23 -30 -10 -10
-141 38 -188 70 -68 46 -113 65 -183 77 -34 6 -64 14 -67 18 -3 5 -27 11 -53
15 l-48 7 5 -28 c2 -16 5 -31 6 -34 1 -3 2 -8 1 -12 0 -5 8 -8 19 -8 23 0 79
-35 129 -79 18 -17 36 -31 40 -31 3 0 28 -20 55 -44 l48 -44 -13 -37 c-8 -21
-20 -40 -27 -43 -19 -7 -72 20 -136 68 -57 43 -102 64 -165 79 -33 7 -41 6
-39 -5 2 -7 -13 -22 -32 -32 -19 -11 -37 -28 -38 -38 -2 -11 -12 -28 -22 -39
-9 -11 -27 -39 -40 -62 l-23 -42 27 -73 c27 -73 28 -74 16 -188 -13 -126 -27
-180 -42 -158 -15 23 3 -75 21 -112 12 -25 25 -36 51 -43 58 -15 62 -24 32
-66 -15 -20 -47 -55 -72 -76 -60 -54 -76 -73 -97 -120 -9 -22 -20 -42 -24 -45
-3 -3 -11 -15 -18 -27 -6 -13 -20 -23 -29 -23 -10 0 -22 -4 -27 -8 -12 -10
-97 -28 -177 -37 -48 -5 -58 -10 -58 -26 0 -20 10 -23 93 -34 48 -6 117 9 117
26 0 12 37 12 45 0 3 -5 1 -12 -5 -16 -5 -3 -10 -19 -10 -36 0 -16 -4 -29 -9
-29 -11 0 -47 -73 -55 -112 -3 -15 -13 -33 -21 -42 -10 -10 -12 -17 -4 -22 6
-3 9 -18 6 -32 -3 -14 -3 -32 0 -39 6 -15 53 -18 53 -3 0 6 18 10 41 10 24 0
38 -4 34 -10 -3 -5 -15 -10 -26 -10 -10 0 -19 -7 -19 -15 0 -8 -4 -15 -10 -15
-5 0 -10 -7 -10 -15 0 -9 -6 -18 -14 -21 -8 -3 -14 -13 -14 -22 1 -36 -50
-191 -73 -218 -15 -18 -39 -1 -39 28 0 10 -7 29 -15 41 -11 18 -12 35 -5 87
13 87 13 90 -7 90 -9 0 -25 7 -35 17 -17 15 -18 12 -18 -80 0 -83 2 -96 18
-100 16 -4 16 -5 0 -6 -16 -1 -18 -15 -18 -155 0 -110 3 -155 12 -158 11 -4
29 -234 24 -298 -3 -29 -18 -34 -22 -7 -10 67 -14 -3 -14 -226 0 -222 2 -263
18 -304 13 -36 16 -60 10 -97 -4 -27 -3 -57 2 -66 11 -21 33 -297 24 -311 -3
-6 -6 -99 -6 -208 0 -161 -3 -199 -15 -213 -23 -25 -8 -36 37 -28 68 12 68 11
70 208 3 195 3 197 -8 332 -5 52 -8 129 -8 171 1 72 3 78 34 110 38 39 38 39
12 107 -25 65 -25 114 0 372 41 418 54 491 135 740 83 252 121 350 169 423 52
82 359 387 442 439 38 25 81 49 95 53 13 4 26 10 29 14 3 3 33 19 68 35 41 20
58 32 50 38 -8 4 1 7 22 7 19 -1 49 4 65 11 17 6 50 16 75 20 25 5 66 14 92
19 26 6 65 11 85 13 21 1 40 5 43 9 3 5 40 12 81 17 42 5 86 15 98 21 39 21
180 26 242 8 114 -33 136 -90 144 -367 6 -182 22 -354 45 -460 78 -368 102
-454 154 -540 12 -19 30 -52 40 -72 20 -40 42 -49 53 -23 3 9 -16 78 -42 153
-44 130 -61 184 -71 242 -3 14 -14 63 -25 110 -11 47 -24 119 -29 160 -13 95
-26 439 -22 547 l3 82 37 4 c32 3 34 5 15 12 -15 4 -23 15 -23 29 0 12 -5 27
-11 33 -17 17 -12 111 6 129 8 8 18 21 22 28 5 7 38 25 74 40 64 27 70 27 205
23 148 -5 205 -14 268 -42 22 -9 50 -15 63 -12 13 2 23 1 23 -2 0 -11 63 -39
110 -50 73 -16 123 -37 151 -64 20 -19 29 -23 38 -14 8 8 11 8 11 0 0 -6 16
-14 36 -17 19 -4 37 -13 40 -21 3 -7 21 -16 40 -20 19 -3 37 -12 40 -19 3 -8
23 -16 45 -20 21 -3 39 -10 39 -15 0 -5 22 -17 49 -26 27 -9 52 -22 55 -30 4
-12 24 -23 98 -53 15 -6 36 -9 45 -6 15 5 15 4 4 -4 -11 -8 -6 -12 23 -17 21
-4 60 -18 87 -31 27 -13 65 -24 85 -24 19 0 33 -4 29 -9 -10 -18 67 -24 152
-12 46 7 88 9 93 6 9 -6 45 2 157 34 94 27 266 36 284 15 7 -8 18 -13 25 -10
7 3 24 -4 37 -15 14 -10 33 -19 44 -20 14 0 14 -2 -5 -10 -26 -10 -21 -29 8
-29 19 0 47 -36 42 -54 -4 -14 19 -66 29 -66 5 0 9 -11 9 -25 0 -14 11 -48 25
-75 14 -27 22 -56 19 -64 -3 -9 -2 -16 3 -16 6 0 16 -18 23 -40 8 -23 19 -44
25 -48 10 -6 115 -213 115 -227 0 -5 80 -188 136 -313 13 -29 24 -55 24 -58 0
-6 118 -180 145 -213 11 -14 32 -37 48 -53 15 -15 27 -32 27 -37 0 -5 7 -16
15 -24 8 -8 33 -50 56 -93 43 -82 63 -174 40 -188 -6 -4 -91 -7 -189 -5 -97 1
-186 2 -197 2 -526 -8 -613 -3 -760 48 -274 96 -463 116 -670 71 -237 -51
-498 -132 -690 -213 -41 -18 -151 -49 -172 -49 -12 0 -25 -4 -28 -10 -3 -5
-14 -10 -23 -10 -28 0 -102 -32 -96 -42 3 -5 -1 -8 -9 -6 -13 3 -113 -49 -222
-116 -89 -55 -134 -111 -116 -145 6 -10 7 -21 4 -25 -9 -9 31 -7 43 2 12 10
70 30 109 36 17 3 68 21 115 39 92 37 249 78 264 70 12 -8 -1 -14 -124 -63
-113 -46 -169 -71 -445 -205 -99 -48 -211 -102 -250 -120 -88 -40 -159 -104
-237 -214 -84 -117 -102 -137 -185 -191 -112 -74 -190 -101 -308 -107 -56 -3
-111 -1 -125 5 -24 10 -24 11 25 33 28 12 59 24 70 25 94 16 129 29 161 62 18
19 31 39 28 44 -3 5 -22 19 -42 33 -21 13 -48 34 -62 47 -65 61 -98 79 -156
84 -55 4 -88 14 -48 14 16 0 17 2 4 10 -8 5 -26 10 -41 10 -14 0 -30 5 -37 12
-20 20 -213 11 -284 -13 -62 -20 -151 -66 -203 -105 -16 -12 -39 -25 -50 -28
-11 -4 -33 -18 -50 -31 -25 -21 -28 -27 -15 -36 15 -10 37 -9 220 11 113 13
196 12 244 -1 29 -8 36 -13 25 -19 -14 -8 -41 -12 -334 -45 -114 -13 -307 -49
-608 -112 l-28 -6 4 -706 c3 -641 5 -711 21 -766 10 -32 26 -65 36 -72 10 -7
21 -26 25 -43 4 -16 11 -32 16 -35 10 -7 13 -45 3 -45 -11 0 -44 42 -44 57 0
7 -7 13 -15 13 -9 0 -21 12 -28 28 -10 23 -12 -7 -15 -183 -3 -249 -2 -260 36
-250 15 4 58 9 95 12 54 4 73 1 95 -13 42 -28 122 -38 317 -38 273 0 435 38
663 154 58 30 115 68 132 87 28 32 30 38 29 117 -1 46 1 88 5 94 3 5 8 37 11
70 5 45 25 104 79 229 104 240 187 395 276 518 39 54 47 103 22 131 -33 35
-52 81 -58 141 -8 72 7 128 46 173 l30 35 31 -35 c17 -19 40 -53 51 -75 11
-22 28 -51 38 -65 10 -14 66 -99 126 -190 103 -157 252 -352 344 -450 92 -98
110 -119 110 -127 0 -13 53 -68 72 -76 10 -3 16 -12 14 -19 -1 -7 -1 -10 1 -7
2 4 28 -7 58 -23 32 -17 74 -31 102 -33 26 -2 64 -10 83 -18 19 -8 87 -25 152
-38 135 -27 183 -23 418 30 203 47 502 135 620 183 372 151 560 296 645 497
70 167 83 292 66 641 -7 129 -15 289 -18 356 l-6 121 32 59 c40 74 59 97 98
117 17 9 34 24 38 34 7 17 8 17 15 -2 7 -16 9 -17 9 -3 1 10 18 22 49 33 26 9
57 21 70 26 13 5 34 6 48 3 14 -4 24 -2 24 5 0 5 12 10 28 9 59 -2 208 15 221
26 9 7 73 11 185 10 151 -1 178 -3 228 -23 31 -12 71 -35 88 -51 17 -16 32
-29 33 -29 14 1 35 -15 31 -23 -4 -5 8 -23 25 -38 17 -16 31 -32 31 -36 0 -4
6 -15 14 -23 27 -30 107 -226 152 -370 25 -79 49 -151 53 -160 5 -9 10 -20 11
-26 2 -5 4 -14 6 -20 2 -5 13 -64 24 -130 21 -117 73 -295 104 -351 9 -16 29
-45 46 -64 29 -33 30 -33 44 -15 8 11 21 38 30 60 8 22 21 58 30 80 18 46 20
126 6 222 -78 546 -75 660 17 715 53 31 102 93 149 188 25 52 61 111 79 131
18 20 35 53 39 75 4 21 16 54 26 74 10 19 25 60 35 90 17 54 17 57 -5 130 -12
41 -44 122 -70 180 -26 58 -54 130 -60 160 -7 30 -28 109 -46 175 -18 66 -42
156 -54 200 -31 115 -88 286 -105 315 -12 21 -14 22 -15 6 0 -15 -2 -16 -15
-6 -21 17 -95 173 -95 199 0 10 -3 21 -7 23 -9 3 -43 96 -43 115 0 7 -16 46
-36 88 -20 42 -37 81 -39 88 -2 7 -6 23 -11 36 -7 23 -8 24 -15 5 -6 -17 -8
-17 -17 8 -6 14 -16 29 -23 33 -19 13 -1 -77 32 -158 17 -40 54 -135 83 -212
30 -77 63 -160 74 -185 56 -125 69 -194 56 -294 l-7 -47 -33 78 c-19 43 -43
95 -55 115 -11 21 -17 43 -14 49 4 6 -6 36 -23 67 -16 31 -35 75 -42 97 -7 22
-39 90 -71 151 -60 114 -71 145 -94 270 -17 87 -40 148 -73 194 -14 19 -29 37
-32 40 -16 13 -37 74 -32 93 5 20 6 20 14 1 5 -12 7 1 5 38 -3 43 -14 79 -45
141 -55 112 -75 136 -107 130 -29 -6 -30 -8 -11 -93 52 -230 53 -235 42 -252
-13 -21 1 -38 15 -18 8 11 10 8 6 -12 -2 -16 0 -28 4 -28 5 0 9 5 9 10 0 16
27 12 34 -5 3 -8 1 -15 -4 -15 -6 0 -10 -4 -10 -10 0 -5 12 -10 26 -10 19 0
25 -4 20 -15 -3 -8 -1 -14 3 -12 15 4 72 -65 92 -111 21 -48 27 -137 7 -94 -6
12 -15 22 -20 22 -5 0 -6 9 -3 20 4 14 2 20 -7 18 -7 -2 -14 7 -16 20 -2 12
-8 22 -13 22 -5 0 -9 7 -9 15 0 8 -7 15 -15 15 -8 0 -15 5 -15 10 0 6 -31 41
-68 79 -63 64 -74 81 -102 144 -16 37 -30 147 -30 242 0 86 -1 92 -29 120 -40
42 -90 86 -133 118 -40 30 -98 36 -117 13 -6 -8 -24 -16 -39 -18 -15 -3 -36
-8 -47 -13 -15 -5 -16 -4 -6 3 18 13 2 18 -114 33 -107 15 -113 15 -142 5 -28
-9 -37 11 -46 94 -4 35 -12 59 -23 67 -10 7 -14 16 -11 20 8 7 -21 43 -35 43
-5 0 -15 6 -23 13 -7 6 -25 21 -41 32 -15 11 -45 34 -68 52 -22 18 -43 30 -46
27 -3 -3 5 -14 18 -24 12 -10 22 -23 22 -28 0 -6 6 -13 13 -15 6 -3 -3 -6 -21
-6 -18 -1 -31 3 -27 8 5 10 -53 -3 -90 -19 -11 -5 -33 -12 -50 -16 -34 -8 -33
-8 -57 -17 -41 -16 -48 -16 -48 -2 0 8 -4 15 -8 15 -9 0 -98 84 -104 98 -1 4
-28 26 -58 49 -43 32 -75 45 -150 63 -176 42 -255 69 -364 125 -60 30 -127 58
-150 62 -22 3 -43 10 -46 14 -3 4 -63 11 -133 15 -151 8 -150 24 1 24 102 0
127 11 56 24 -19 4 -83 11 -142 16 -65 6 -149 21 -212 40 -58 16 -116 30 -129
30 l-24 0 24 -26 c23 -25 79 -60 79 -50 0 3 12 1 28 -5 53 -21 123 -36 146
-32 13 3 27 0 31 -7 5 -8 -11 -10 -60 -5 -45 4 -65 2 -60 -5 3 -5 -1 -10 -9
-10 -9 0 -15 6 -14 13 2 6 -5 11 -15 9 -21 -4 -77 22 -134 60 -23 15 -68 34
-100 42 -32 8 -76 21 -98 29 -63 22 -164 37 -240 35 -38 -2 -129 6 -202 15
-72 10 -144 17 -160 15 l-28 -4 35 -16 c19 -8 88 -26 153 -38 93 -19 117 -27
115 -39 -8 -38 -177 -30 -313 14 -38 13 -89 23 -111 23 -36 1 -42 -2 -43 -21
-1 -12 -2 -33 -2 -47 -1 -14 7 -61 19 -105 30 -121 34 -155 16 -162 -9 -3 -21
1 -28 8 -17 18 -76 192 -76 225 0 14 -7 27 -16 31 -15 6 -15 7 1 19 16 12 15
14 -11 20 -28 7 -239 -20 -404 -51 -41 -8 -97 -14 -123 -15 -70 0 -56 -23 19
-31 32 -3 50 -6 39 -7 -17 -2 -15 -5 10 -18 20 -10 54 -14 112 -13 46 1 83 5
83 8 0 11 63 31 96 31 16 0 42 -9 58 -19 31 -21 76 -69 76 -82 0 -4 6 -14 13
-21 7 -7 18 -25 24 -40 17 -39 -4 -37 -76 6 -88 54 -193 98 -230 98 -19 0 -85
-6 -146 -12 -106 -12 -115 -12 -186 10 -124 38 -149 50 -149 72 0 13 5 18 14
15 19 -7 98 13 114 30 11 11 1 13 -60 12 -50 0 -67 -3 -53 -9 19 -8 -76 -5
-132 5 -50 8 -57 30 -16 46 14 5 58 25 96 44 39 19 79 35 89 35 10 0 28 10 39
21 16 16 23 18 29 9 6 -9 13 -7 29 9 11 11 26 21 31 21 6 0 10 5 10 11 0 6 9
22 20 36 25 32 26 59 1 73 -16 8 -35 2 -98 -31z m491 -294 c-4 -10 -20 -15
-48 -15 -22 0 -52 -3 -66 -5 -23 -5 -23 -5 -4 4 12 5 25 14 29 20 3 6 26 11
50 11 35 0 43 -3 39 -15z m2960 -519 c-3 -8 -12 -12 -20 -9 -17 6 -9 23 11 23
8 0 12 -6 9 -14z m111 4 c3 -5 1 -10 -4 -10 -6 0 -11 5 -11 10 0 6 2 10 4 10
3 0 8 -4 11 -10z m-175 -15 c0 -15 -46 -32 -57 -21 -4 3 3 6 15 6 13 0 22 6
22 15 0 8 5 15 10 15 6 0 10 -7 10 -15z m144 -19 c-3 -8 3 -19 15 -25 11 -7
25 -20 31 -31 10 -19 7 -20 -60 -20 l-70 0 0 39 c0 40 0 40 43 44 23 2 43 4
44 5 1 1 0 -4 -3 -12z m136 -66 c21 -7 19 -8 -17 -9 -24 -1 -43 4 -43 9 0 12
24 12 60 0z m475 -160 c3 -5 1 -10 -4 -10 -6 0 -11 5 -11 10 0 6 2 10 4 10 3
0 8 -4 11 -10z m-4392 -347 c-7 -2 -19 -2 -25 0 -7 3 -2 5 12 5 14 0 19 -2 13
-5z m1077 -83 c0 -21 -4 -41 -9 -44 -9 -6 -19 48 -13 77 6 31 22 7 22 -33z
m2007 -136 c-3 -3 -12 -4 -19 -1 -8 3 -5 6 6 6 11 1 17 -2 13 -5z m-3795 -357
c-10 -17 -25 -31 -32 -29 -8 2 -10 -3 -6 -13 3 -10 -3 -28 -14 -42 -11 -14
-20 -20 -20 -14 0 7 -6 11 -12 8 -7 -2 -12 -10 -10 -16 1 -6 -7 -11 -19 -11
-11 0 -17 4 -14 10 3 6 -1 7 -9 4 -11 -4 -16 0 -16 15 0 21 27 33 64 28 14 -1
20 6 23 28 4 30 10 40 21 40 4 0 18 11 31 24 32 32 40 12 13 -32z m-84 -38
c-18 -12 -51 -11 -43 1 3 6 12 10 20 10 7 0 16 8 20 18 8 16 8 16 13 -2 2 -10
-2 -22 -10 -27z m6122 -635 c0 -8 -4 -14 -10 -14 -5 0 -10 9 -10 21 0 11 5 17
10 14 6 -3 10 -13 10 -21z m-1697 -792 c-4 -58 -1 -93 11 -136 10 -32 16 -59
14 -61 -2 -1 -38 0 -80 2 -64 5 -78 9 -78 22 0 19 22 54 57 92 20 22 23 31 14
47 -14 26 -14 53 -1 86 7 20 17 26 39 26 l30 0 -6 -78z m393 -30 c6 -4 15 -21
18 -38 12 -53 105 -75 146 -34 19 19 19 19 45 -12 48 -57 25 -65 -180 -67
-133 -2 -145 0 -145 16 1 10 7 29 15 43 8 14 14 42 15 63 0 36 1 37 38 37 20
0 42 -4 48 -8z m-1028 -172 c11 -65 5 -130 -13 -136 -7 -3 -28 -4 -47 -2 -33
4 -33 4 -8 15 25 11 25 11 -12 18 -23 4 -56 1 -91 -9 -31 -9 -61 -14 -69 -11
-13 5 -44 63 -37 70 15 14 80 31 109 28 19 -2 40 -4 45 -4 45 -1 95 40 95 78
0 43 17 14 28 -47z m-295 -57 c-7 -2 -19 -2 -25 0 -7 3 -2 5 12 5 14 0 19 -2
13 -5z m-368 -44 c88 -6 164 -15 169 -19 5 -5 -2 -7 -15 -4 -24 5 -24 5 -4
-12 18 -15 19 -16 1 -10 -11 4 -23 0 -30 -9 -6 -9 -23 -16 -36 -17 -14 -1 -31
-6 -37 -11 -7 -5 -20 -7 -28 -3 -8 3 -15 1 -15 -3 0 -5 -9 -7 -20 -4 -11 3
-20 9 -20 14 0 5 -10 9 -22 9 -18 0 -20 -2 -8 -10 12 -7 12 -12 2 -22 -8 -8
-12 -8 -12 -1 0 11 -48 28 -65 23 -5 -1 -21 -4 -35 -5 -100 -9 -162 -23 -155
-35 3 -5 1 -11 -4 -15 -5 -3 -20 -37 -32 -75 -19 -61 -25 -70 -45 -70 -14 0
-24 6 -24 14 0 22 -42 96 -52 90 -4 -3 -8 4 -8 16 0 17 -5 20 -35 18 -19 -1
-35 -6 -35 -10 0 -4 -6 -8 -13 -8 -15 0 -50 -38 -59 -65 -5 -17 -6 -16 -7 7
-1 18 13 42 44 76 41 45 54 52 167 90 200 68 196 67 433 51z m953 -36 c6 -16
23 -77 37 -137 22 -94 24 -114 13 -150 l-12 -41 -7 35 c-5 26 -7 29 -8 11 -2
-43 -12 -15 -22 60 -9 77 -21 99 -50 99 -24 0 -26 53 -3 110 19 47 37 51 52
13z m-320 -27 c32 -4 45 -36 13 -36 -11 0 -26 -7 -35 -15 -8 -8 -23 -15 -33
-15 -10 -1 -35 -7 -55 -14 -31 -11 -38 -11 -38 -1 0 8 8 16 18 18 13 4 11 5
-5 6 -16 1 -23 -5 -23 -18 0 -11 -9 -23 -21 -26 -28 -9 -35 1 -16 23 10 10 15
21 12 24 -10 9 19 25 58 31 20 3 37 2 37 -4 0 -5 5 -9 10 -9 6 0 10 12 10 26
0 21 4 24 20 19 11 -4 32 -8 48 -9z m-1218 -414 c0 -7 -4 -10 -10 -7 -5 3 -10
16 -10 28 0 18 2 19 10 7 5 -8 10 -21 10 -28z m150 16 c-11 -12 -20 -25 -20
-30 0 -4 -5 -8 -11 -8 -6 0 -1 14 11 30 12 17 26 30 31 30 5 0 1 -10 -11 -22z
m-2042 -284 c6 -2 12 -10 12 -17 0 -10 -16 -16 -47 -20 -64 -7 -312 0 -316 10
-8 24 285 48 351 27z m782 -720 c0 -19 -4 -34 -10 -34 -5 0 -10 12 -10 28 0
15 -7 36 -15 46 -26 35 -17 54 10 23 16 -18 25 -40 25 -63z m1482 34 c-7 -7
-12 -19 -12 -28 0 -9 -11 -23 -25 -30 -14 -7 -25 -17 -25 -22 0 -11 -291 -298
-317 -312 -21 -11 -15 9 10 36 12 13 56 62 97 109 130 146 244 258 265 259 15
0 16 -3 7 -12z m522 -155 c11 -20 15 -23 16 -10 0 9 4 17 9 17 14 0 41 -29 41
-44 0 -8 7 -19 15 -26 10 -9 15 -9 15 -1 0 6 18 11 44 11 31 0 46 5 50 16 4
12 15 15 36 12 20 -3 30 0 30 9 0 7 5 13 10 13 6 0 10 -5 10 -11 0 -6 10 -19
22 -28 32 -26 31 -97 -2 -139 -14 -17 -36 -35 -50 -38 -23 -7 -23 -8 -5 -15
14 -5 6 -8 -27 -8 -27 -1 -48 -5 -48 -10 0 -5 10 -7 23 -4 14 4 19 2 12 -4
-12 -12 -105 -38 -122 -35 -7 2 -13 -2 -13 -9 0 -7 -9 -9 -21 -6 -12 3 -18 3
-15 0 3 -4 -11 -12 -31 -19 -27 -10 -39 -10 -44 -2 -5 8 -14 7 -31 -3 -12 -8
-50 -16 -82 -18 -33 -1 -76 -9 -95 -17 -74 -31 -203 -52 -256 -42 -140 26
-142 27 -47 22 62 -4 92 -2 92 5 0 6 -8 11 -17 12 -13 0 -10 4 8 12 15 7 39
24 54 40 22 21 37 27 71 27 36 0 44 3 44 18 0 14 8 17 40 17 26 0 40 4 40 12
0 7 12 13 28 13 36 0 46 9 51 45 1 17 6 32 11 35 13 9 30 48 30 71 0 27 39 91
51 83 5 -3 12 2 15 10 9 23 21 20 38 -11z m256 17 c0 -5 -4 -10 -10 -10 -5 0
-10 5 -10 10 0 6 5 10 10 10 6 0 10 -4 10 -10z m-3390 -325 c-6 -8 -20 -17
-30 -20 -10 -3 -21 -16 -23 -28 -3 -17 -5 -16 -6 7 -1 31 22 55 53 56 15 0 16
-3 6 -15z m-70 -24 c0 -6 -4 -13 -10 -16 -5 -3 -10 1 -10 9 0 9 5 16 10 16 6
0 10 -4 10 -9z m-45 -38 c-4 -21 -9 -60 -12 -87 -2 -28 -6 -53 -9 -57 -2 -4 0
-18 5 -31 6 -12 10 -18 10 -12 1 6 15 26 32 45 17 19 39 51 50 72 11 20 26 37
34 37 8 0 15 8 15 18 0 31 18 41 57 30 75 -20 112 -49 167 -127 87 -123 160
-200 191 -202 l20 0 -20 -9 c-18 -7 -16 -9 13 -15 17 -4 32 -13 32 -20 0 -18
40 -52 40 -34 1 8 8 2 16 -13 18 -34 60 -38 93 -9 13 11 36 23 52 26 16 4 31
11 34 16 4 5 13 9 21 9 12 0 11 -7 -3 -42 -9 -24 -28 -58 -41 -76 -40 -53
-172 -153 -248 -188 -87 -39 -269 -90 -429 -119 -91 -17 -251 -20 -200 -4 17
5 39 7 50 4 33 -7 297 43 314 60 18 18 11 18 -60 4 -30 -5 -133 -14 -229 -18
-151 -7 -180 -11 -212 -29 -32 -18 -45 -20 -83 -13 -49 9 -71 21 -39 21 27 0
84 37 84 54 0 8 7 22 16 31 9 9 18 31 20 48 7 61 15 97 23 97 4 0 16 28 26 63
26 90 61 197 79 238 8 20 24 78 35 127 17 80 43 142 58 142 3 0 2 -17 -2 -37z
m2582 -9 c-3 -3 -12 -4 -19 -1 -8 3 -5 6 6 6 11 1 17 -2 13 -5z m-186 -114
c24 -14 25 -40 0 -40 -22 0 -45 25 -36 40 8 13 12 13 36 0z"/>
<path d="M641 3964 c0 -11 3 -14 6 -6 3 7 2 16 -1 19 -3 4 -6 -2 -5 -13z"/>
<path d="M2590 9691 c0 -5 -9 -13 -20 -16 -11 -3 -20 -10 -20 -14 0 -9 72 -27
160 -41 37 -5 113 -21 170 -35 115 -29 183 -30 85 -2 -33 10 -94 28 -135 41
-41 14 -99 30 -128 36 -28 7 -55 16 -58 21 -3 5 -9 7 -14 4 -5 -3 -11 -1 -15
5 -8 13 -25 13 -25 1z"/>
<path d="M1380 9400 c36 -12 60 -12 60 0 0 6 -19 10 -42 9 -37 -1 -39 -2 -18
-9z"/>
<path d="M3751 9361 c-11 -7 -10 -10 5 -14 55 -15 75 -17 69 -7 -3 5 -14 10
-24 10 -9 0 -21 4 -27 10 -5 5 -15 6 -23 1z"/>
<path d="M3840 9337 c0 -8 220 -77 243 -77 40 0 11 17 -65 38 -46 12 -92 25
-103 28 -38 11 -75 16 -75 11z"/>
<path d="M4265 9245 c33 -7 62 -12 64 -9 8 8 -52 24 -87 23 -32 -1 -30 -3 23
-14z"/>
<path d="M5200 8890 c0 -6 4 -10 8 -10 4 0 17 -7 27 -15 76 -58 155 -98 184
-93 14 2 -6 17 -67 48 -48 25 -89 47 -92 50 -13 13 -60 29 -60 20z"/>
<path d="M3505 8230 c3 -5 8 -10 11 -10 2 0 4 5 4 10 0 6 -5 10 -11 10 -5 0
-7 -4 -4 -10z"/>
<path d="M38 8092 c-25 -2 -38 -8 -38 -18 0 -10 14 -14 59 -14 69 0 123 9 116
20 -3 5 -14 6 -25 3 -11 -3 -32 -1 -47 3 -15 5 -45 8 -65 6z"/>
<path d="M6345 7200 c3 -5 8 -10 11 -10 2 0 4 5 4 10 0 6 -5 10 -11 10 -5 0
-7 -4 -4 -10z"/>
<path d="M7042 5405 c0 -16 2 -22 5 -12 2 9 2 23 0 30 -3 6 -5 -1 -5 -18z"/>
<path d="M7042 4980 c0 -14 2 -19 5 -12 2 6 2 18 0 25 -3 6 -5 1 -5 -13z"/>
<path d="M7060 4925 l-3 -40 -7 35 -7 35 -2 -37 c-1 -27 -5 -38 -16 -38 -20 0
-65 -45 -65 -65 0 -8 -7 -15 -15 -15 -8 0 -15 -6 -15 -13 0 -16 -29 -77 -36
-77 -3 0 -3 9 1 19 3 11 1 22 -5 26 -8 5 -15 -14 -11 -37 2 -14 -94 -98 -106
-93 -8 2 -16 -2 -20 -10 -4 -12 -8 -13 -20 -3 -30 24 -46 -36 -41 -156 2 -52
7 -81 16 -84 6 -2 12 1 12 8 0 6 34 46 75 88 41 42 75 80 75 84 0 5 7 8 15 8
8 0 15 3 15 8 0 7 30 25 63 38 10 4 16 12 13 19 -3 8 1 16 9 19 10 3 12 0 8
-12 -13 -38 17 6 51 75 38 75 42 108 26 208 l-7 50 -3 -40z m-13 -87 c-3 -8
-6 -5 -6 6 -1 11 2 17 5 13 3 -3 4 -12 1 -19z"/>
<path d="M6402 4211 c-21 -15 -23 -26 -24 -93 0 -54 5 -83 16 -101 10 -14 21
-64 27 -114 12 -114 31 -178 24 -82 -3 37 -2 75 2 85 6 17 7 16 15 -2 5 -13 6
-7 3 16 -3 19 -7 55 -10 80 -15 139 -26 224 -28 226 -1 2 -13 -5 -25 -15z"/>
<path d="M6195 4119 c-4 -6 -13 -8 -21 -5 -8 3 -14 2 -14 -3 0 -5 10 -11 21
-14 20 -5 20 -7 6 -22 -19 -19 -21 -95 -6 -237 13 -122 19 -308 10 -308 -3 0
-4 -21 -2 -47 4 -40 5 -44 12 -23 7 24 7 24 8 3 1 -13 5 -23 9 -23 17 0 33
268 26 429 -5 116 -4 161 4 161 17 0 32 -35 32 -74 0 -20 5 -36 11 -36 7 0 9
21 6 63 -6 87 -10 97 -43 124 -32 25 -49 29 -59 12z"/>
<path d="M6346 3923 c-11 -11 -6 -31 9 -37 19 -7 47 3 39 15 -8 14 -41 29 -48
22z"/>
<path d="M6301 3863 c-1 -6 -4 -20 -7 -30 -5 -17 -5 -17 6 0 6 10 9 23 6 30
-3 9 -5 9 -5 0z"/>
<path d="M6461 3854 c0 -11 3 -14 6 -6 3 7 2 16 -1 19 -3 4 -6 -2 -5 -13z"/>
<path d="M6490 3812 c0 -29 4 -52 10 -52 6 0 7 19 3 48 -8 64 -13 66 -13 4z"/>
<path d="M6337 3793 c-27 -85 -39 -310 -19 -363 7 -19 11 -10 20 51 13 84 28
359 19 359 -3 0 -12 -21 -20 -47z"/>
<path d="M6476 3729 c-21 -69 -24 -109 -13 -179 19 -119 11 -420 -12 -420 -11
0 -12 -114 0 -156 12 -46 68 -117 76 -96 2 6 11 12 18 12 38 0 19 392 -27 575
-11 45 -21 121 -23 173 -2 88 -9 122 -19 91z"/>
<path d="M6666 3671 c-13 -20 -18 -158 -6 -166 16 -10 21 16 18 101 -2 50 -6
74 -12 65z"/>
<path d="M6036 3599 c-13 -55 -10 -172 3 -151 15 25 23 -160 10 -247 -6 -45
-9 -123 -6 -174 11 -197 37 -533 43 -560 13 -61 -5 -104 -74 -178 -104 -110
-102 -103 -102 -327 0 -153 -3 -199 -15 -222 -16 -31 -35 -40 -35 -17 0 7 -9
19 -20 27 -16 12 -20 26 -20 77 0 35 -4 63 -10 63 -11 0 -13 -22 -14 -110 -1
-44 -4 -55 -18 -58 -12 -2 -18 3 -18 13 0 9 -6 15 -12 13 -8 -3 -14 -25 -16
-52 -2 -47 -27 -95 -48 -96 -6 0 -26 27 -43 60 -33 62 -57 76 -66 38 -8 -41
-33 -172 -40 -215 -5 -30 -12 -43 -22 -43 -14 0 -15 18 -8 163 11 204 10 286
-2 298 -21 21 -35 -23 -42 -134 -5 -62 -14 -124 -21 -138 -8 -13 -20 -53 -27
-89 -8 -36 -23 -84 -35 -108 l-20 -43 -64 4 c-43 3 -68 10 -81 22 -10 10 -13
20 -8 22 11 3 9 230 -2 273 -6 25 -6 25 -13 -5 -4 -16 -8 -66 -9 -110 -1 -58
-4 -76 -11 -65 -8 11 -9 7 -4 -15 9 -39 13 -47 25 -40 5 4 9 -3 9 -14 0 -12
-5 -21 -12 -21 -9 0 -9 -3 0 -12 7 -7 12 -23 12 -38 0 -20 -7 -27 -37 -37 -29
-9 -39 -9 -45 0 -5 8 -12 6 -23 -8 -14 -19 -16 -19 -29 -2 -20 26 -69 22 -100
-9 -23 -23 -26 -35 -28 -98 -3 -154 -1 -245 6 -327 5 -50 5 -88 0 -92 -20 -12
-44 23 -62 94 -11 41 -30 99 -41 129 -11 30 -21 78 -21 105 -1 54 -18 112 -19
68 -1 -28 -16 -29 -38 -3 -10 11 -23 20 -30 20 -7 0 -13 7 -13 15 0 8 -6 15
-14 15 -25 0 -61 24 -105 70 -35 37 -48 62 -73 140 -16 52 -33 105 -38 118 -6
13 -10 31 -10 41 0 23 -35 34 -51 15 -6 -8 -15 -11 -20 -8 -5 3 -9 0 -9 -6 0
-6 -4 -8 -10 -5 -19 12 -10 -15 35 -101 25 -47 45 -92 45 -100 0 -8 5 -14 10
-14 6 0 10 -12 10 -27 0 -19 -3 -24 -9 -15 -6 10 -10 9 -14 -7 -3 -13 -13 -21
-27 -21 -42 0 -57 -71 -52 -250 2 -69 5 -78 33 -108 17 -18 37 -45 45 -60 13
-26 14 -25 8 23 -3 31 -2 45 3 37 19 -27 66 20 48 48 -3 5 3 10 14 10 14 0 21
6 21 20 0 11 -7 20 -15 20 -8 0 -15 9 -15 20 0 15 7 20 24 20 14 0 27 4 30 8
2 4 33 5 68 2 35 -4 65 -3 66 2 15 35 52 -43 52 -109 0 -49 -51 -169 -100
-233 -15 -19 -50 -75 -80 -125 -29 -49 -64 -107 -77 -127 l-23 -38 -70 2 c-68
1 -72 3 -110 40 -22 21 -40 42 -40 48 0 6 -17 26 -37 45 -39 36 -73 46 -73 20
0 -11 -11 -15 -41 -15 -33 0 -40 -3 -35 -16 3 -9 6 -19 7 -22 0 -4 4 2 9 13 8
18 9 18 9 2 1 -10 -7 -20 -16 -23 -31 -9 -48 -21 -49 -33 -1 -6 -2 -15 -3 -21
-2 -16 -44 -50 -63 -50 -10 0 -18 -6 -18 -13 0 -7 -9 -19 -20 -27 -11 -8 -20
-22 -20 -32 0 -31 -19 -19 -23 15 l-4 32 -13 -33 c-8 -17 -20 -32 -27 -32 -7
0 -13 -7 -13 -15 0 -8 -9 -15 -19 -15 -26 0 -36 17 -14 23 14 4 12 5 -5 6 -12
0 -25 8 -29 17 -4 12 -8 13 -14 3 -6 -10 -11 -6 -18 13 -18 47 -51 44 -132
-12 -40 -28 -88 -54 -106 -59 -48 -13 -225 -4 -292 15 -31 9 -87 17 -126 18
-51 2 -80 8 -108 24 -29 17 -42 20 -57 12 -25 -13 -26 -2 -2 16 15 12 15 13
-10 14 -24 0 -127 -48 -153 -71 -5 -5 -15 -9 -22 -9 -7 0 -30 -11 -51 -23 -51
-33 -218 -98 -240 -94 -11 1 -31 11 -46 20 -14 10 -38 22 -52 27 -14 6 -28 19
-31 30 -6 23 -23 27 -23 5 0 -28 -18 -15 -25 17 -4 18 -11 35 -14 38 -16 12
-49 79 -40 82 5 2 -5 28 -24 58 -38 64 -70 143 -87 214 -16 70 -57 152 -86
175 -28 22 -74 110 -74 141 0 11 -4 20 -10 20 -5 0 -10 11 -10 25 0 14 -4 25
-8 25 -4 0 -17 26 -27 58 -27 77 -25 217 3 270 44 85 118 171 185 215 98 66
173 81 386 75 91 -3 182 0 201 5 34 9 318 16 351 9 11 -2 15 -11 12 -23 -7
-26 -69 -79 -93 -79 -11 0 -20 -4 -20 -10 0 -15 23 -12 46 5 10 8 28 14 39 14
17 0 15 -2 -7 -15 -16 -8 -28 -19 -28 -23 0 -5 -12 -12 -27 -16 -15 -3 -45
-15 -67 -26 -22 -10 -47 -19 -57 -19 -27 0 -106 -84 -105 -111 1 -15 -5 -25
-14 -25 -52 -5 -55 -6 -41 -11 10 -4 8 -9 -10 -20 -14 -8 -16 -12 -6 -9 10 3
34 6 53 6 20 0 33 3 31 8 -3 4 16 6 41 4 26 -2 65 1 87 7 l40 10 -48 -2 c-88
-2 -92 46 -5 59 29 4 59 7 66 5 7 -1 15 5 18 14 4 9 19 15 41 15 42 0 57 8
108 54 21 20 45 36 53 36 8 0 26 7 40 15 15 8 68 34 117 58 97 47 229 128 257
158 10 9 34 30 55 46 33 24 111 95 199 181 13 13 24 27 24 31 0 17 -42 19 -78
4 -77 -33 -180 -54 -168 -34 10 15 -65 21 -304 21 -129 0 -266 5 -305 10 -209
29 -244 32 -310 22 -98 -16 -178 -62 -128 -75 15 -4 14 -5 -4 -6 -12 0 -23 -5
-25 -9 -1 -5 -37 -25 -79 -45 -79 -39 -125 -45 -189 -27 -19 6 -57 13 -85 16
-27 3 -52 7 -54 9 -13 13 -89 -52 -173 -146 -13 -15 -37 -29 -54 -32 -29 -6
-31 -3 -48 42 -9 26 -30 62 -46 80 -17 18 -30 39 -30 47 0 8 -7 14 -15 14 -32
0 -22 28 71 200 8 14 13 39 13 55 -1 20 -3 24 -6 11 -6 -25 -63 -85 -63 -68 0
18 18 51 41 76 36 38 18 49 -25 15 -66 -52 -247 -369 -211 -369 3 0 21 16 39
36 28 31 38 36 61 30 18 -5 25 -12 21 -21 -3 -8 1 -18 8 -22 19 -12 46 -56 46
-76 0 -20 -42 -85 -84 -131 -15 -15 -25 -35 -22 -42 3 -8 2 -14 -3 -14 -15 0
-24 -246 -11 -319 11 -57 10 -72 -2 -96 l-15 -28 -52 53 c-28 29 -51 49 -51
46 0 -9 21 -50 29 -56 4 -3 15 -25 26 -50 22 -50 80 -120 100 -120 16 0 121
-114 170 -186 22 -32 73 -92 114 -133 41 -42 88 -95 105 -117 66 -89 152 -200
175 -227 28 -31 55 -102 48 -122 -8 -20 -90 -55 -128 -55 -65 0 -223 -40 -289
-72 -36 -18 -88 -55 -116 -83 -58 -56 -76 -72 -113 -97 -25 -17 -12 -18 325
-18 l352 0 6 23 c3 13 24 35 47 50 70 46 89 31 44 -36 l-26 -37 1518 0 1519 0
13 45 c7 25 22 56 32 69 11 13 19 28 19 33 0 4 10 14 21 22 17 10 23 10 29 1
12 -19 32 -1 25 21 -5 14 -2 17 8 13 8 -3 18 0 22 6 11 18 34 -7 28 -30 -3
-11 -9 -20 -14 -20 -11 0 -12 -37 -1 -44 8 -5 42 28 42 39 0 7 85 121 134 180
52 63 130 141 177 178 44 34 62 74 88 187 11 47 36 121 56 165 21 44 66 151
101 238 36 87 74 180 85 205 63 142 168 344 170 327 1 -5 4 3 8 19 9 42 28 44
23 3 -3 -28 0 -33 17 -33 17 0 21 9 26 56 4 30 11 82 17 115 5 33 10 94 10
136 0 75 15 177 17 117 1 -15 8 -33 16 -42 8 -8 15 -19 15 -25 0 -6 5 -11 10
-11 6 0 10 -15 10 -32 0 -36 14 -66 23 -51 4 6 6 39 5 74 -3 195 0 300 10 350
11 53 8 124 -13 314 -2 17 -4 55 -5 85 -2 43 -4 50 -10 30 -4 -14 -8 -46 -9
-72 -1 -26 -6 -50 -12 -54 -6 -4 -10 1 -8 12 1 11 -1 27 -6 37 -4 10 -5 31 -1
47 5 25 2 30 -14 30 -11 0 -20 -6 -20 -14 0 -8 -5 -16 -11 -18 -17 -6 -39 -78
-39 -130 0 -27 -4 -48 -10 -48 -5 0 -10 23 -10 51 0 72 -20 191 -36 214 -14
19 -14 19 -14 -2 0 -21 -26 -50 -36 -40 -13 13 -23 148 -17 228 5 79 4 88 -16
108 -11 11 -21 18 -21 15 0 -4 -7 0 -17 7 -13 11 -17 11 -21 1 -8 -26 -32 10
-32 49 0 22 -4 39 -10 39 -6 0 -9 -30 -9 -72 2 -78 15 -233 18 -208 3 31 40
-47 51 -110 6 -36 18 -85 27 -110 8 -25 17 -88 20 -140 5 -85 3 -99 -16 -130
-11 -19 -21 -52 -21 -72 0 -26 -4 -38 -14 -38 -21 0 -27 42 -25 181 2 142 -8
187 -40 167 -23 -14 -31 -56 -31 -169 0 -67 -3 -88 -14 -92 -24 -10 -27 22
-21 205 4 135 2 188 -10 243 -31 141 -34 163 -33 266 0 121 -17 284 -37 364
-8 31 -15 68 -15 83 0 15 -4 34 -9 41 -8 12 -11 10 -15 -10z m31 -221 c-2 -13
-4 -3 -4 22 0 25 2 35 4 23 2 -13 2 -33 0 -45z m200 -320 c-3 -7 -5 -2 -5 12
0 14 2 19 5 13 2 -7 2 -19 0 -25z m-127 -825 c0 -27 -5 -55 -10 -63 -7 -11
-10 3 -10 48 0 35 4 62 10 62 6 0 10 -21 10 -47z m-101 -187 c-6 -28 -18 -58
-25 -67 -8 -9 -12 -18 -9 -20 2 -3 -5 -5 -15 -6 -11 -1 -20 4 -20 10 0 21 31
152 41 169 5 10 9 26 10 35 1 10 7 -2 15 -26 10 -33 11 -55 3 -95z m-4442
-558 c-3 -7 -5 -2 -5 12 0 14 2 19 5 13 2 -7 2 -19 0 -25z m2973 -332 c0 -11
-19 -15 -25 -6 -3 5 1 10 9 10 9 0 16 -2 16 -4z m940 -90 c0 -3 -4 -8 -10 -11
-5 -3 -10 -1 -10 4 0 6 5 11 10 11 6 0 10 -2 10 -4z m-414 -172 c-5 -46 -21
-34 -24 20 -4 65 8 94 19 45 4 -20 7 -49 5 -65z m-1016 -318 c0 -3 -4 -8 -10
-11 -5 -3 -10 -1 -10 4 0 6 5 11 10 11 6 0 10 -2 10 -4z m1510 -336 c8 -5 11
-12 8 -16 -4 -3 -14 1 -23 10 -18 17 -9 21 15 6z"/>
<path d="M3180 3470 c-6 -11 -8 -25 -5 -30 11 -18 20 -10 22 20 3 35 -2 38
-17 10z"/>
<path d="M2319 3387 c-73 -27 -223 -131 -216 -150 2 -7 12 -14 22 -16 26 -5
162 28 209 50 57 27 86 24 173 -18 68 -33 87 -38 148 -37 90 0 151 18 188 55
27 27 28 31 14 52 -8 13 -34 27 -63 35 -27 7 -62 18 -79 24 -49 17 -353 21
-396 5z"/>
<path d="M5887 3330 c-9 -26 -37 -154 -37 -172 0 -10 -4 -18 -8 -18 -5 0 -14
-24 -21 -52 -7 -29 -25 -78 -40 -108 -25 -53 -26 -62 -26 -225 0 -136 4 -180
18 -218 9 -26 20 -72 23 -102 7 -60 18 -76 32 -48 11 20 19 307 13 471 -3 106
7 144 34 122 21 -17 28 15 32 150 4 118 -7 233 -20 200z"/>
<path d="M6619 3194 c0 -5 -2 -58 -4 -119 -1 -60 -8 -141 -14 -180 -14 -92
-13 -106 5 -73 34 65 51 244 31 350 -4 20 -17 36 -18 22z"/>
<path d="M1600 3119 c0 -6 19 -31 43 -54 46 -47 75 -57 199 -70 68 -7 108 5
108 32 0 12 -9 15 -138 33 -40 6 -80 14 -90 19 -109 55 -122 59 -122 40z"/>
<path d="M5994 2921 c1 -25 7 -46 13 -48 9 -3 9 6 2 34 -16 59 -18 61 -15 14z"/>
<path d="M5884 2884 c-4 -14 -2 -53 3 -87 l10 -62 2 88 c1 89 -3 107 -15 61z"/>
<path d="M2705 2697 c-44 -22 -81 -44 -83 -49 -2 -4 -11 -8 -20 -8 -9 0 -27
-8 -40 -18 -20 -16 -21 -20 -10 -45 7 -15 19 -27 26 -27 7 0 11 -4 8 -9 -3 -5
2 -13 12 -17 12 -6 3 -10 -33 -14 -44 -6 -38 -7 40 -9 147 -4 173 -8 215 -30
73 -38 108 -37 199 3 59 26 97 36 134 36 29 1 81 6 117 13 99 19 150 12 150
-21 0 -11 7 -26 16 -33 14 -11 18 -10 30 5 11 16 22 18 70 12 73 -8 78 -12
149 -95 66 -77 100 -91 111 -46 4 16 13 25 25 25 12 0 19 7 19 20 0 11 6 20
13 20 6 0 35 11 62 25 28 13 63 25 80 25 22 0 26 3 17 12 -17 17 -15 33 3 18
12 -10 15 -6 21 29 4 23 10 41 14 41 15 0 3 38 -25 80 -35 51 -97 86 -170 95
-74 9 -454 -10 -468 -24 -16 -16 -94 -14 -157 5 -42 12 -93 16 -225 14 -93 -1
-181 0 -195 3 -17 3 -51 -8 -105 -36z"/>
<path d="M1830 2495 c-13 -34 -29 -138 -23 -147 10 -18 34 -5 72 38 35 40 41
54 41 91 0 50 -13 50 -25 1 l-8 -33 -10 38 c-12 43 -33 48 -47 12z"/>
<path d="M5706 2448 c-3 -18 -1 -49 3 -68 8 -31 9 -27 10 33 1 73 -3 86 -13
35z"/>
<path d="M5755 2279 c-11 -16 3 -56 21 -63 24 -9 27 -2 20 39 -7 34 -28 47
-41 24z"/>
<path d="M5681 2268 c-1 -10 -17 -46 -36 -81 -19 -35 -35 -71 -35 -80 0 -9 -6
-17 -14 -17 -10 0 -12 -7 -8 -22 5 -19 7 -20 10 -5 5 27 29 20 37 -10 6 -24 8
-26 16 -10 6 10 15 14 21 11 7 -5 9 2 4 21 -5 18 0 44 15 81 18 43 20 58 12
76 -7 13 -14 30 -16 38 -4 12 -6 11 -6 -2z"/>
<path d="M5540 2010 c0 -5 5 -10 11 -10 5 0 7 5 4 10 -3 6 -8 10 -11 10 -2 0
-4 -4 -4 -10z"/>
<path d="M5502 1946 c-7 -16 -8 -26 -1 -26 12 0 22 25 17 41 -2 6 -9 0 -16
-15z"/>
<path d="M2415 1384 c-86 -44 -120 -136 -80 -214 23 -44 112 -98 186 -114 66
-14 120 -36 151 -63 14 -12 30 -14 75 -8 32 5 50 10 40 12 -9 3 -15 9 -12 14
9 13 93 11 132 -3 28 -10 36 -10 42 1 6 9 10 7 14 -10 14 -54 -29 -145 -65
-136 -13 4 -22 -1 -27 -14 -6 -19 -11 -17 -61 23 -30 24 -65 54 -77 67 -18 19
-23 20 -23 8 0 -9 9 -21 20 -27 11 -6 20 -17 20 -24 0 -23 95 -96 124 -96 14
0 26 5 26 10 0 6 -4 10 -10 10 -5 0 -10 7 -10 15 0 17 25 20 35 5 12 -20 104
57 105 88 0 6 4 12 9 12 4 0 14 21 20 48 21 82 30 115 56 195 54 171 3 206
-278 192 -202 -9 -207 -9 -262 10 -58 19 -112 19 -150 -1z m505 -203 c0 -11
-10 -27 -22 -35 -16 -11 -22 -25 -21 -48 1 -18 -1 -25 -4 -16 -2 10 -10 15
-19 11 -17 -6 -19 -30 -1 -36 7 -2 8 -8 3 -13 -5 -5 -11 -4 -13 4 -3 6 -11 12
-19 12 -20 0 -18 5 18 58 54 80 78 99 78 63z m17 -57 c-3 -3 -12 -4 -19 -1 -8
3 -5 6 6 6 11 1 17 -2 13 -5z m-127 -75 c0 -5 -4 -9 -10 -9 -5 0 -10 7 -10 16
0 8 5 12 10 9 6 -3 10 -10 10 -16z m180 -93 c0 -3 -4 -8 -10 -11 -5 -3 -10 -1
-10 4 0 6 5 11 10 11 6 0 10 -2 10 -4z"/>
<path d="M5168 1383 c7 -3 16 -2 19 1 4 3 -2 6 -13 5 -11 0 -14 -3 -6 -6z"/>
<path d="M6730 1345 c0 -11 -3 -31 -5 -45 -5 -22 -4 -23 5 -5 8 15 9 6 7 -40
-3 -33 -2 -52 0 -42 7 29 20 19 27 -20 3 -21 8 -46 9 -56 2 -10 11 -26 19 -37
10 -11 14 -28 11 -42 -4 -18 -3 -20 6 -8 9 12 11 10 11 -13 0 -16 -4 -26 -8
-23 -5 3 -9 -8 -9 -25 0 -16 3 -25 7 -20 3 6 13 2 24 -10 18 -21 18 -85 0
-166 -9 -44 3 -103 21 -103 17 0 19 -9 6 -29 -7 -11 -13 -7 -27 15 -53 83 -91
94 -143 41 -17 -19 -53 -44 -79 -57 -26 -13 -49 -26 -52 -30 -3 -4 -32 -17
-65 -29 -69 -25 -98 -37 -140 -59 -16 -9 -48 -26 -70 -37 -29 -16 -41 -29 -43
-48 -3 -27 11 -37 23 -17 3 5 25 10 49 10 32 0 50 -7 72 -27 43 -40 114 -137
114 -156 0 -10 3 -17 8 -17 4 0 6 -18 4 -40 -4 -39 -4 -39 27 -35 17 2 31 -1
31 -6 0 -5 -9 -9 -21 -9 -18 0 -20 -4 -14 -27 9 -36 14 -41 26 -23 8 12 10 9
6 -12 -3 -19 0 -25 10 -21 16 6 17 -19 1 -35 -21 -21 10 -14 41 9 21 16 28 29
30 62 2 49 -24 232 -39 272 -17 45 -12 62 34 109 51 54 81 59 111 18 18 -24
20 -42 19 -152 -1 -178 -17 -244 -77 -322 l-29 -38 251 0 251 0 1 38 c2 33 2
34 6 7 8 -51 20 -49 20 4 -1 29 -4 46 -9 38 -11 -18 -10 52 2 93 8 26 7 64 -6
150 -18 122 -28 151 -66 190 -14 14 -28 34 -32 44 -3 10 -9 16 -13 12 -4 -3 3
-20 15 -36 12 -16 22 -34 22 -40 0 -5 5 -10 11 -10 6 0 9 -6 6 -14 -3 -7 0
-19 6 -25 8 -8 8 -14 0 -22 -9 -9 -19 -4 -42 19 -17 17 -31 38 -31 46 0 9 -6
16 -12 16 -10 0 -10 2 0 9 10 6 5 10 -16 14 -27 5 -31 12 -41 57 -14 63 -14
83 -1 96 7 7 -5 39 -36 98 -25 48 -56 115 -69 149 -12 34 -40 105 -60 157 -21
52 -51 136 -66 185 -15 50 -28 81 -29 70z m115 -355 c3 -5 1 -10 -4 -10 -6 0
-11 5 -11 10 0 6 2 10 4 10 3 0 8 -4 11 -10z"/>
<path d="M4902 1180 c0 -14 2 -19 5 -12 2 6 2 18 0 25 -3 6 -5 1 -5 -13z"/>
<path d="M4911 1104 c0 -11 3 -14 6 -6 3 7 2 16 -1 19 -3 4 -6 -2 -5 -13z"/>
<path d="M3698 500 c-18 -21 -13 -26 11 -11 7 5 12 14 10 20 -3 7 -11 3 -21
-9z"/>
<path d="M3841 464 c0 -11 3 -14 6 -6 3 7 2 16 -1 19 -3 4 -6 -2 -5 -13z"/>
<path d="M6029 358 c-20 -11 -46 -37 -57 -57 -31 -58 -72 -206 -72 -263 l0
-38 251 0 251 0 -7 28 c-6 27 -13 65 -14 90 -1 6 -6 12 -12 12 -5 0 -8 -4 -4
-9 3 -5 1 -12 -5 -16 -5 -3 -10 -1 -10 5 0 6 -24 34 -53 63 -29 28 -73 77 -97
107 -87 106 -107 116 -171 78z"/>
<path d="M6311 174 c0 -11 3 -14 6 -6 3 7 2 16 -1 19 -3 4 -6 -2 -5 -13z"/>
<path d="M5456 141 c-4 -7 -5 -15 -2 -18 9 -9 19 4 14 18 -4 11 -6 11 -12 0z"/>
</g>
</svg>
